<svg width="134" height="67" viewBox="0 0 134 67" fill="none" xmlns="http://www.w3.org/2000/svg">
<path d="M74.8394 28.6908L74.8136 16.5496H53.2437L53.1145 66.8966H74.8136C74.8136 63.9001 74.8136 60.361 74.8136 57.4678L62.9566 57.3903V47.3158H74.7877V37.1896H62.9307V28.6908H74.8394Z" fill="#E02228"/>
<path d="M78.6625 28.5099H85.6888V66.7416H96.9517V28.4324H103.616L103.642 16.4205H78.6625V28.5099Z" fill="#283F7C"/>
<path d="M133.918 47.5741V47.3674H133.659H133.633H128.88H124.411C124.385 47.5741 124.463 51.2939 124.385 52.973C124.256 55.4012 123.998 57.2095 120.175 57.2353C118.005 57.2612 116.713 55.5304 116.687 53.1022C116.662 45.43 116.662 37.7578 116.713 30.0598C116.713 29.1815 116.739 28.1741 117.23 27.4508C118.16 26.03 119.839 26.1333 121.441 26.2108C123.352 26.2883 124.411 27.4766 124.411 29.7499C124.411 31.4806 124.411 32.8239 124.411 34.5805H133.943L133.918 26.3142C133.918 19.9078 127.821 17.1179 123.223 16.7046C119.477 16.3688 117.979 16.3946 114.233 16.7304C109.79 17.1179 106.251 21.6385 106.225 26.5983C106.174 36.6212 106.148 46.6441 106.225 56.667C106.251 62.0401 110.384 66.5866 115.215 66.6899C118.47 66.7674 120.717 66.9224 123.972 66.8191C128.338 66.6899 133.401 62.4793 133.788 57.6486C134.047 54.4196 133.892 50.8806 133.918 47.5741Z" fill="#283F7C"/>
<path d="M2.14752 15.9038C2.14752 15.9297 2.14752 15.9555 2.14752 15.9813C2.14752 16.0072 2.14752 16.0588 2.14752 16.0847C2.14752 16.1105 2.14752 16.1363 2.14752 16.188C2.14752 16.4721 2.17335 16.7305 2.22502 17.0146C2.76749 20.0887 5.71237 22.1294 8.7864 21.5869C11.5246 21.0961 13.4362 18.7454 13.462 16.0588C13.462 16.0072 13.462 15.9813 13.462 15.9297C13.462 15.9038 13.462 15.878 13.462 15.878V15.8522C13.462 15.8263 13.462 15.8005 13.462 15.7747C13.462 15.7488 13.462 15.6972 13.462 15.6713C13.462 15.6197 13.462 15.5938 13.462 15.5422C13.462 15.4905 13.462 15.4389 13.462 15.3872C13.462 15.3614 13.462 15.3355 13.462 15.2839C13.462 15.258 13.462 15.2322 13.462 15.2322C13.462 15.1805 13.462 15.1547 13.4362 15.103C13.4362 15.0772 13.4362 15.0255 13.4104 14.9997C13.4104 14.948 13.3845 14.9222 13.3845 14.8705C13.3845 14.8189 13.3845 14.7931 13.3587 14.7414C13.3587 14.7156 13.3587 14.6897 13.3329 14.6897C13.3329 14.6381 13.307 14.5864 13.307 14.5606C13.307 14.5347 13.2812 14.5089 13.2812 14.4572C13.2812 14.4056 13.2554 14.3797 13.2554 14.3281C13.2554 14.2764 13.2295 14.2506 13.2295 14.1989C13.2295 14.1731 13.2037 14.1472 13.2037 14.1214C13.152 14.0956 13.152 14.0439 13.1262 13.9923C13.1262 13.9664 13.1262 13.9664 13.1004 13.9406V13.9148C13.1004 13.8889 13.0745 13.8373 13.0487 13.8114C13.0487 13.7598 13.0229 13.7339 13.0229 13.6823C13.0229 13.6564 12.997 13.6306 12.997 13.6048C12.9712 13.5789 12.9454 13.5273 12.9196 13.4756C12.9196 13.4498 12.8937 13.4239 12.8937 13.3981C12.8679 13.3723 12.8421 13.3206 12.8162 13.2948C12.8162 13.2689 12.7904 13.2173 12.7646 13.1915C12.7646 13.1656 12.7387 13.1656 12.7387 13.1398C12.7129 13.0881 12.6871 13.0623 12.6612 13.0106C12.6612 12.9848 12.6354 12.959 12.6096 12.9073C12.5837 12.8815 12.5579 12.8298 12.5321 12.804C12.5321 12.7781 12.5062 12.7265 12.4804 12.7006C12.4804 12.6748 12.4546 12.6748 12.4546 12.649C12.4287 12.6231 12.4029 12.5973 12.3771 12.5715C12.3512 12.5198 12.3254 12.494 12.2996 12.4423C12.2737 12.4165 12.2479 12.3907 12.2221 12.339C12.1963 12.3132 12.1704 12.2873 12.1446 12.2615C12.1446 12.2615 12.1446 12.2615 12.1188 12.2357C12.1188 12.2357 12.1188 12.2357 12.0929 12.2098C12.0929 12.184 12.0671 12.1582 12.0413 12.1323C12.0154 12.1065 11.9896 12.0548 11.9379 12.029C11.9121 12.0032 11.8863 11.9773 11.8604 11.9257C11.8346 11.8998 11.8088 11.874 11.7571 11.8482L11.7313 11.8223C11.7054 11.7707 11.6796 11.7707 11.6538 11.7448C11.6021 11.6932 11.5763 11.6674 11.5504 11.6415C11.5246 11.6157 11.4988 11.5899 11.4471 11.564C11.4213 11.5382 11.3955 11.5124 11.3696 11.4865C11.3438 11.4607 11.318 11.4607 11.318 11.4349C11.2663 11.409 11.2405 11.3832 11.2146 11.3574C11.1888 11.3315 11.1371 11.3057 11.1113 11.3057C11.0855 11.2799 11.0596 11.254 11.0338 11.254C11.008 11.2282 10.9563 11.1765 10.9305 11.1507C10.9046 11.1507 10.8788 11.1249 10.853 11.1249C10.8271 11.099 10.7755 11.0732 10.7496 11.0474C10.698 11.0215 10.6722 10.9957 10.6463 10.9957C10.6463 10.9957 10.6463 10.9957 10.6205 10.9957C10.5947 10.9957 10.5947 10.9699 10.5688 10.9699C10.5172 10.9182 10.4913 10.8924 10.4397 10.8666C10.4138 10.8666 10.388 10.8407 10.388 10.8407C10.3363 10.8149 10.3105 10.8149 10.2588 10.7891C10.233 10.7632 10.1813 10.7374 10.1555 10.7374C10.1297 10.7116 10.1038 10.7116 10.078 10.6857C10.0263 10.6857 9.97468 10.6599 9.92302 10.6341C9.89718 10.6341 9.89718 10.6082 9.87135 10.6082C9.84552 10.6082 9.79386 10.5824 9.76802 10.5824C9.71636 10.5566 9.69053 10.5307 9.63886 10.5307C9.61303 10.5307 9.56137 10.5049 9.53553 10.5049C9.48387 10.4791 9.45804 10.4791 9.40637 10.4532C9.38054 10.4532 9.35471 10.4274 9.35471 10.4274C9.32888 10.4274 9.30304 10.4016 9.27721 10.4016C9.19972 10.4016 9.17388 10.3757 9.12222 10.3757C9.07055 10.3757 9.04472 10.3499 8.99306 10.3499C8.96723 10.3499 8.91556 10.3241 8.88973 10.3241C8.8639 10.3241 8.83806 10.3241 8.81223 10.2982H8.7864C8.76057 10.2982 8.73474 10.2982 8.73474 10.2982C8.68307 10.2982 8.63141 10.2724 8.57974 10.2724C8.52808 10.2724 8.47641 10.2724 8.42475 10.2466C8.39892 10.2466 8.37308 10.2466 8.32142 10.2466C8.29559 10.2466 8.26976 10.2466 8.24392 10.2466C8.21809 10.2466 8.19226 10.2466 8.14059 10.2466C8.08893 10.2466 8.03727 10.2466 7.9856 10.2466C7.93394 10.2466 7.88227 10.2466 7.83061 10.2466C7.80478 10.2466 7.77894 10.2466 7.77894 10.2466H7.75311C7.72728 10.2466 7.70145 10.2466 7.67562 10.2466C7.64978 10.2466 7.59812 10.2466 7.57229 10.2466C7.52062 10.2466 7.49479 10.2466 7.44312 10.2466C7.39146 10.2466 7.3398 10.2466 7.28813 10.2466C7.2623 10.2466 7.23647 10.2466 7.1848 10.2466C7.15897 10.2466 7.13314 10.2466 7.13314 10.2466C7.08147 10.2466 7.05564 10.2466 7.00398 10.2724C6.97815 10.2724 6.92648 10.2724 6.90065 10.2982C6.84898 10.2982 6.82315 10.3241 6.77149 10.3241C6.71982 10.3241 6.69399 10.3241 6.64233 10.3499C6.61649 10.3499 6.59066 10.3499 6.59066 10.3757C6.539 10.3757 6.48733 10.4016 6.4615 10.4016C6.43567 10.4016 6.40984 10.4274 6.35817 10.4274C6.30651 10.4274 6.28068 10.4532 6.22901 10.4532C6.17735 10.4532 6.15151 10.4791 6.09985 10.4791C6.07402 10.4791 6.04819 10.5049 6.02235 10.5049C5.99652 10.5049 5.97069 10.5307 5.91902 10.5307C5.89319 10.5307 5.89319 10.5307 5.86736 10.5566H5.84153C5.8157 10.5824 5.76403 10.6082 5.7382 10.6082C5.68653 10.6341 5.63487 10.6341 5.60904 10.6599C5.58321 10.6599 5.55737 10.6857 5.53154 10.6857C5.50571 10.7116 5.45404 10.7374 5.40238 10.7632C5.37655 10.7632 5.35072 10.7891 5.32488 10.7891C5.29905 10.8149 5.24739 10.8149 5.22155 10.8407C5.16989 10.8666 5.14406 10.8666 5.09239 10.8924C5.06656 10.8924 5.06656 10.9182 5.04073 10.9182C5.0149 10.9441 4.96323 10.9699 4.9374 10.9957C4.91157 11.0215 4.8599 11.0215 4.83407 11.0474C4.80824 11.0732 4.75658 11.099 4.73074 11.1249C4.70491 11.1507 4.65325 11.1765 4.62741 11.1765C4.60158 11.1765 4.60158 11.2024 4.57575 11.2024C4.54992 11.254 4.52409 11.2799 4.49825 11.2799C4.44659 11.3057 4.42076 11.3315 4.36909 11.3574C4.34326 11.3832 4.31743 11.4349 4.26576 11.4607C4.23993 11.4865 4.2141 11.5124 4.18827 11.5382C4.18827 11.5382 4.18827 11.5382 4.16243 11.564C4.16243 11.564 4.16243 11.564 4.1366 11.5899C4.11077 11.5899 4.08494 11.6157 4.05911 11.6415C4.03327 11.6674 3.98161 11.6932 3.95578 11.719C3.92994 11.7448 3.87828 11.7965 3.85245 11.8223C3.82662 11.8482 3.80078 11.874 3.77495 11.8998L3.74912 11.9257C3.69745 11.9773 3.67162 12.0032 3.64579 12.029C3.61996 12.0548 3.59413 12.0807 3.56829 12.1323C3.54246 12.1582 3.51663 12.184 3.4908 12.2098C3.46496 12.2357 3.43913 12.2873 3.4133 12.3132C3.38747 12.339 3.38747 12.339 3.36164 12.3648C3.3358 12.3907 3.30997 12.4165 3.28414 12.4682C3.25831 12.494 3.23247 12.5198 3.20664 12.5456C3.20664 12.5715 3.18081 12.5973 3.15498 12.6231C3.12915 12.6748 3.10331 12.7006 3.07748 12.7523C3.07748 12.7781 3.05165 12.7781 3.05165 12.804C3.02582 12.8556 2.99998 12.8815 2.97415 12.9331C2.94832 12.959 2.92249 12.9848 2.89666 13.0365C2.89666 13.0365 2.89666 13.0365 2.89666 13.0623C2.89666 13.0881 2.87082 13.0881 2.87082 13.114C2.84499 13.1398 2.81916 13.1915 2.79333 13.2173C2.79333 13.2431 2.7675 13.269 2.7675 13.269C2.74166 13.3206 2.71583 13.3723 2.71583 13.4239C2.69 13.4498 2.66417 13.4756 2.66417 13.5273C2.63833 13.5531 2.63833 13.5789 2.6125 13.6048C2.58667 13.6564 2.58667 13.6823 2.56084 13.7339C2.56084 13.7598 2.53501 13.7598 2.53501 13.7856C2.50917 13.8373 2.50917 13.8631 2.48334 13.9148C2.48334 13.9406 2.45751 13.9923 2.45751 14.0439C2.45751 14.0697 2.43168 14.1214 2.43168 14.1472C2.40584 14.1731 2.38001 14.2247 2.38001 14.2764C2.38001 14.3022 2.35418 14.3281 2.35418 14.3281C2.35418 14.3539 2.32835 14.3797 2.32835 14.4056C2.32835 14.4572 2.30252 14.5089 2.30252 14.5606C2.30252 14.6122 2.27668 14.6381 2.27668 14.6897C2.27668 14.7156 2.25085 14.7672 2.25085 14.7931C2.25085 14.8189 2.25085 14.8447 2.22502 14.8705V14.8964C2.22502 14.9222 2.22502 14.948 2.22502 14.948C2.22502 14.9997 2.19919 15.0514 2.19919 15.103C2.19919 15.1547 2.19919 15.2064 2.17335 15.258C2.17335 15.2839 2.17335 15.3097 2.17335 15.3614C2.17335 15.3872 2.17335 15.413 2.17335 15.4389C2.17335 15.4647 2.17335 15.4905 2.17335 15.5422C2.17335 15.5938 2.17335 15.6455 2.17335 15.6972C2.17335 15.7488 2.17335 15.8005 2.17335 15.8522C2.14752 15.8263 2.14752 15.8522 2.14752 15.9038C2.14752 15.878 2.14752 15.878 2.14752 15.9038Z" fill="#283F7C"/>
<path d="M15.0377 26.0559C15.2444 25.8234 15.451 25.565 15.7352 25.4359C16.0193 25.3326 16.3552 25.2809 16.6393 25.3842C16.9493 25.4617 17.156 25.6684 17.4143 25.7975C17.6468 25.9525 17.9051 26.0817 18.2151 26.1075C19.0159 26.1592 19.7133 25.5134 19.765 24.7126C19.8167 23.9118 19.1709 23.2143 18.3442 23.1627C18.0601 23.1368 17.7759 23.2402 17.5176 23.3693C17.2593 23.4985 17.0268 23.6535 16.7426 23.731C16.4327 23.8085 16.1227 23.731 15.8385 23.576C15.5544 23.4468 15.3735 23.1627 15.1927 22.9043C15.0119 22.6202 14.8052 22.3619 14.5469 22.1294C14.2369 21.871 13.8494 21.6644 13.4361 21.5611C13.2553 21.5094 13.0486 21.4836 12.842 21.4577C11.2662 21.3802 9.89711 22.6202 9.81961 24.1959C9.74212 25.7975 10.9562 27.1666 12.5578 27.2441C12.7645 27.2441 12.9711 27.2441 13.152 27.2183C13.5653 27.1408 13.9786 26.9858 14.3144 26.7533C14.5986 26.5467 14.8311 26.3142 15.0377 26.0559Z" fill="#283F7C"/>
<path d="M16.8977 20.0886C16.3294 20.0886 15.8386 20.5536 15.8386 21.1477C15.8386 21.7419 16.3035 22.2069 16.8977 22.2069C17.4918 22.2069 17.9568 21.7419 17.9568 21.1477C17.9568 20.5536 17.466 20.0886 16.8977 20.0886Z" fill="#E02228"/>
<path d="M12.6479 35.8694C14.088 33.0968 13.0077 29.6818 10.2351 28.2417C7.4625 26.8017 4.04747 27.882 2.60743 30.6546C1.16739 33.4272 2.24764 36.8422 5.02025 38.2822C7.79285 39.7223 11.2079 38.642 12.6479 35.8694Z" fill="#283F7C"/>
<path d="M19.7392 34.787C19.8425 34.632 19.9459 34.4254 20.0234 34.2446C20.1784 33.8571 20.23 33.4179 20.2042 33.0046C20.1784 32.6688 20.075 32.3588 19.9459 32.0488C19.8425 31.7647 19.7134 31.4547 19.765 31.1189C19.8167 30.8089 19.9459 30.4989 20.1784 30.2922C20.4108 30.0856 20.6692 30.0081 20.9275 29.8531C21.1858 29.7239 21.4183 29.5689 21.5991 29.3106C22.0383 28.6131 21.8575 27.709 21.16 27.244C20.4883 26.8049 19.5584 26.9857 19.1192 27.6832C18.9642 27.9415 18.9126 28.2256 18.8867 28.5098C18.8609 28.794 18.8867 29.0781 18.8093 29.3623C18.7059 29.6464 18.4734 29.9047 18.2409 30.0597C17.9568 30.2406 17.6468 30.2664 17.3368 30.2664C17.001 30.2922 16.6652 30.3181 16.3552 30.4472C15.9419 30.6022 15.5802 30.8347 15.2961 31.1189C15.1669 31.2738 15.0377 31.4288 14.9344 31.5838C14.0561 32.9271 14.4436 34.7095 15.7869 35.5878C17.0785 36.492 18.8609 36.1045 19.7392 34.787Z" fill="#283F7C"/>
<path d="M17.2594 26.9599C16.7427 26.6758 16.1227 26.8308 15.8128 27.3474C15.5286 27.8382 15.6836 28.484 16.2002 28.7682C16.6911 29.0523 17.3369 28.8973 17.621 28.3807C17.931 27.8899 17.7502 27.2441 17.2594 26.9599Z" fill="#E02228"/>
<path d="M22.6324 47.5224C25.7568 47.5224 28.2897 44.9896 28.2897 41.8651C28.2897 38.7407 25.7568 36.2079 22.6324 36.2079C19.508 36.2079 16.9752 38.7407 16.9752 41.8651C16.9752 44.9896 19.508 47.5224 22.6324 47.5224Z" fill="#283F7C"/>
<path d="M29.7105 31.6615C29.4522 31.3257 29.1164 31.0674 28.7289 30.8865C28.4189 30.7574 28.1089 30.6799 27.7731 30.6282C27.4631 30.5766 27.1531 30.5249 26.8948 30.3182C26.6623 30.1374 26.4557 29.8532 26.3782 29.5691C26.3265 29.2849 26.3782 29.0008 26.3782 28.6908C26.404 28.4066 26.3782 28.1225 26.249 27.8383C25.8615 27.115 24.9574 26.8309 24.2341 27.1925C23.5108 27.5542 23.2266 28.4583 23.5883 29.1816C23.7174 29.4399 23.9499 29.6466 24.1824 29.7758C24.4149 29.9307 24.6991 30.0599 24.8799 30.2666C25.1124 30.5249 25.2157 30.8607 25.2157 31.1449C25.2415 31.4807 25.0866 31.7648 24.9316 32.049C24.7766 32.359 24.6474 32.669 24.5957 32.9789C24.5182 33.3923 24.5441 33.8314 24.6474 34.2447C24.6991 34.4255 24.7766 34.6322 24.8799 34.813C25.6032 36.2338 27.3598 36.8021 28.7547 36.0788C30.1755 35.3555 30.7438 33.5989 30.0205 32.204C29.943 31.9973 29.8138 31.8423 29.7105 31.6615Z" fill="#283F7C"/>
<path d="M21.7283 31.894C22.0125 32.3848 22.6583 32.5656 23.1491 32.2814C23.6399 31.9973 23.8207 31.3515 23.5366 30.8607C23.2524 30.344 22.6066 30.1632 22.1158 30.4473C21.625 30.7573 21.4441 31.3773 21.7283 31.894Z" fill="#E02228"/>
<path d="M36.6594 27.6832C33.5853 28.2256 31.5187 31.1705 32.0612 34.2445C32.6037 37.3186 35.5486 39.3852 38.6226 38.8427C41.6966 38.3002 43.7632 35.3553 43.2207 32.2813C42.6783 29.2073 39.7334 27.1407 36.6594 27.6832Z" fill="#283F7C"/>
<path d="M35.4711 25.0742C35.5486 23.4727 34.3344 22.1294 32.7328 22.0519C32.5262 22.0519 32.3195 22.0519 32.1387 22.0777C31.7254 22.1552 31.3121 22.3102 30.9763 22.5427C30.6921 22.7235 30.4854 22.9818 30.253 23.2402C30.0463 23.4727 29.8396 23.731 29.5555 23.8601C29.2713 23.9635 28.9355 24.0151 28.6514 23.9118C28.3672 23.8085 28.1605 23.6276 27.9022 23.4727C27.6697 23.3177 27.3856 23.1885 27.1014 23.1627C26.2748 23.1368 25.5773 23.7568 25.5257 24.5576C25.474 25.3584 26.1198 26.0559 26.9464 26.1075C27.2564 26.1334 27.5147 26.03 27.7731 25.9009C28.0314 25.7717 28.2639 25.6167 28.548 25.5392C28.858 25.4617 29.168 25.5392 29.4522 25.6942C29.7363 25.8492 29.9171 26.1075 30.098 26.3917C30.2788 26.6758 30.4854 26.9342 30.7438 27.1667C31.0796 27.4508 31.4671 27.6316 31.8546 27.7608C32.0354 27.8125 32.242 27.8383 32.4487 27.8383C34.0503 27.89 35.3936 26.6758 35.4711 25.0742Z" fill="#283F7C"/>
<path d="M28.3672 29.1815C28.9355 29.1815 29.4263 28.7166 29.4263 28.1224C29.4263 27.5541 28.9613 27.0633 28.3672 27.0633C27.7989 27.0633 27.308 27.5283 27.308 28.1224C27.3339 28.7166 27.7989 29.1815 28.3672 29.1815Z" fill="#E02228"/>
<path d="M39.5784 10.5565C36.6594 9.49736 33.4045 10.9956 32.3195 13.9405C31.2604 16.8854 32.7587 20.1144 35.7036 21.1994C38.6484 22.2585 41.8775 20.7602 42.9624 17.8153C44.0474 14.8705 42.5233 11.6414 39.5784 10.5565Z" fill="#283F7C"/>
<path d="M25.3448 14.7671C25.2415 14.9221 25.1381 15.1287 25.0606 15.3096C24.9056 15.6971 24.854 16.1104 24.8798 16.5495C24.9056 16.8853 25.009 17.1953 25.1381 17.5053C25.2415 17.7895 25.3706 18.0995 25.319 18.4353C25.2673 18.7453 25.1381 19.0552 24.9056 19.2619C24.6732 19.4427 24.4148 19.5461 24.1565 19.6752C23.8982 19.8044 23.6657 19.9594 23.4849 20.2177C23.0457 20.9152 23.2265 21.8193 23.924 22.2843C24.5957 22.7234 25.5256 22.5426 25.9648 21.8451C26.1198 21.5868 26.1714 21.3026 26.1973 21.0185C26.2231 20.7343 26.1972 20.4502 26.2747 20.166C26.3781 19.8819 26.6106 19.6236 26.8431 19.4686C27.1272 19.2877 27.4372 19.2619 27.7472 19.2619C28.083 19.2361 28.4188 19.2102 28.7288 19.0811C29.1421 18.9261 29.5038 18.6936 29.7879 18.4094C29.9171 18.2544 30.0462 18.0995 30.1496 17.9445C31.0279 16.6012 30.6404 14.8188 29.2971 13.9405C28.0055 13.0363 26.1973 13.4238 25.3448 14.7671Z" fill="#283F7C"/>
<path d="M27.6439 20.8894C27.3598 21.3802 27.5148 22.026 28.0314 22.3102C28.5481 22.5943 29.168 22.4393 29.4522 21.9227C29.7363 21.4319 29.5814 20.7861 29.0647 20.5019C28.5739 20.2178 27.9281 20.3986 27.6439 20.8894Z" fill="#E02228"/>
<path d="M27.8495 9.606C29.0624 6.72653 27.7114 3.40902 24.832 2.19613C21.9525 0.983228 18.635 2.33424 17.4221 5.2137C16.2092 8.09316 17.5602 11.4107 20.4397 12.6236C23.3191 13.8365 26.6367 12.4855 27.8495 9.606Z" fill="#283F7C"/>
<path d="M15.7611 17.867C16.0194 18.2029 16.3552 18.4612 16.7427 18.642C17.0527 18.797 17.3627 18.8487 17.7244 18.9262C18.0343 18.9778 18.3443 19.0295 18.6027 19.2361C18.8351 19.417 19.0418 19.7011 19.1193 19.9853C19.171 20.2694 19.1193 20.5536 19.1193 20.8636C19.0935 21.1477 19.1193 21.4319 19.2485 21.716C19.6359 22.4393 20.5142 22.7493 21.2375 22.3618C21.9608 21.9744 22.245 21.0702 21.8575 20.3469C21.7283 20.0886 21.4959 19.882 21.2634 19.7528C21.0309 19.572 20.7467 19.4686 20.5659 19.2361C20.3592 19.0037 20.2559 18.6937 20.2301 18.3837C20.2301 18.0479 20.3592 17.7637 20.5142 17.4796C20.6692 17.1696 20.7984 16.8596 20.8501 16.5496C20.9275 16.1363 20.9017 15.6971 20.7984 15.2838C20.7467 15.103 20.6692 14.8963 20.5917 14.7413C19.8684 13.3206 18.1118 12.7523 16.6911 13.4756C15.2703 14.1989 14.702 15.9555 15.4511 17.3762C15.5286 17.5312 15.6319 17.712 15.7611 17.867Z" fill="#283F7C"/>
<path d="M23.5366 17.402C23.2524 16.8854 22.6066 16.7304 22.1158 17.0145C21.625 17.2987 21.4441 17.9445 21.7283 18.4353C22.0125 18.952 22.6583 19.107 23.1491 18.8228C23.6657 18.5386 23.8465 17.8928 23.5366 17.402Z" fill="#E02228"/>
</svg>
